<?xml version="1.0" encoding="UTF-8" standalone="no"?><!DOCTYPE svg PUBLIC "-//W3C//DTD SVG 1.1//EN" "http://www.w3.org/Graphics/SVG/1.1/DTD/svg11.dtd"><svg width="100%" height="100%" viewBox="0 0 7500 6680" version="1.1" xmlns="http://www.w3.org/2000/svg" xmlns:xlink="http://www.w3.org/1999/xlink" xml:space="preserve" xmlns:serif="http://www.serif.com/" style="fill-rule:evenodd;clip-rule:evenodd;stroke-linecap:round;stroke-linejoin:round;stroke-miterlimit:1.5;"><g><path d="M2122.88,2347.02c-106.25,-0 -188.965,-39.844 -248.144,-119.532c-59.18,-79.687 -88.77,-178.125 -88.77,-295.312c0,-116.406 31.445,-213.77 94.336,-292.09c62.891,-78.32 145.898,-117.481 249.023,-117.481c103.907,0 186.036,39.161 246.387,117.481c60.352,78.32 90.527,176.269 90.527,293.848c0,123.437 -31.347,223.144 -94.042,299.121c-62.696,75.976 -145.801,113.965 -249.317,113.965Zm1.172,-116.016c51.953,-0 95.898,-21.484 131.836,-64.453c35.937,-42.969 53.906,-120.899 53.906,-233.789c0,-91.797 -14.844,-163.77 -44.531,-215.918c-29.688,-52.149 -75.781,-78.223 -138.281,-78.223c-123.438,0 -185.157,99.414 -185.157,298.242c0,96.485 15.723,169.629 47.168,219.434c31.446,49.805 76.465,74.707 135.059,74.707Z" style="fill:#6db9ef;fill-rule:nonzero;"/><path d="M3542.61,1534.91l-213.868,799.805l-151.171,-0l-159.375,-588.281l-144.727,588.281l-148.242,-0l-218.555,-799.805l152.93,0l154.687,583.008l144.141,-583.008l145.898,0l159.375,583.008l151.758,-583.008l127.149,0Z" style="fill:#6db9ef;fill-rule:nonzero;"/><path d="M4246.32,2334.71l-140.039,-0l-303.516,-510.938c-4.688,-7.812 -12.305,-20.507 -22.852,-38.086c-4.687,-7.812 -11.914,-20.117 -21.679,-36.914l-0,585.938l-116.016,-0l0,-799.805l159.375,0l280.078,471.094c2.344,3.906 19.336,32.617 50.977,86.133l-0,-557.227l113.672,0l-0,799.805Z" style="fill:#6db9ef;fill-rule:nonzero;"/><path d="M4941.83,2334.71l-519.726,-0l-0,-799.805l514.453,0l-0,118.945l-370.313,0l0,216.797l297.657,0l-0,116.016l-297.657,-0l0,223.828l375.586,0l0,124.219Z" style="fill:#6db9ef;fill-rule:nonzero;"/><path d="M5061.95,2334.71l-0,-799.805l294.726,0c108.985,0 196.485,38.574 262.5,115.723c66.016,77.148 99.024,172.363 99.024,285.644c-0,113.282 -33.985,208.008 -101.954,284.18c-67.968,76.172 -165.234,114.258 -291.796,114.258l-262.5,-0Zm148.242,-117.774l120.117,0c64.453,0 119.141,-24.218 164.062,-72.656c44.922,-48.437 67.383,-120.508 67.383,-216.211c0,-78.125 -19.629,-144.238 -58.886,-198.34c-39.258,-54.101 -91.114,-81.152 -155.567,-81.152l-137.109,0l-0,568.359Z" style="fill:#6db9ef;fill-rule:nonzero;"/></g><g><path d="M1749.9,1102.43l-146.484,0l-246.68,-799.804l152.344,-0l183.398,612.89l187.5,-612.89l120.118,-0l-250.196,799.804Z" style="fill:#6db9ef;fill-rule:nonzero;"/><path d="M2610.64,1102.43l-519.727,0l-0,-799.804l514.453,-0l0,118.945l-370.312,-0l-0,216.797l297.656,-0l-0,116.015l-297.656,0l-0,223.828l375.586,0l-0,124.219Z" style="fill:#6db9ef;fill-rule:nonzero;"/><path d="M3014.36,1102.43l-154.687,0l-0,-676.172l-212.695,0l-0,-123.632l580.078,-0l-0,123.632l-212.696,0l0,676.172Z" style="fill:#6db9ef;fill-rule:nonzero;"/><path d="M3834.67,1102.43l-519.727,0l0,-799.804l514.454,-0l-0,118.945l-370.313,-0l0,216.797l297.656,-0l0,116.015l-297.656,0l0,223.828l375.586,0l-0,124.219Z" style="fill:#6db9ef;fill-rule:nonzero;"/><path d="M4582.32,1102.43l-152.344,0l-124.218,-328.711l-202.735,0l0,328.711l-144.14,0l-0,-799.804l346.875,-0c96.484,-0 167.383,21.777 212.695,65.332c45.313,43.554 67.969,99.902 67.969,169.043c-0,102.734 -48.047,173.437 -144.141,212.109l140.039,353.32Zm-479.297,-444.14l179.297,-0c51.953,-0 90.625,-10.938 116.016,-32.813c25.39,-21.875 38.086,-51.953 38.086,-90.234c-0,-35.157 -12.5,-63.574 -37.5,-85.254c-25,-21.68 -59.961,-32.52 -104.883,-32.52l-191.016,0l0,240.821Z" style="fill:#6db9ef;fill-rule:nonzero;"/><path d="M5357.52,1102.43l-154.102,0l-63.867,-190.429l-307.617,-0l-62.696,190.429l-123.047,0l265.43,-799.804l177.539,-0l268.36,799.804Zm-256.641,-305.859l-116.602,-356.836l-116.601,356.836l233.203,-0Z" style="fill:#6db9ef;fill-rule:nonzero;"/><path d="M6057.72,1102.43l-140.039,0l-303.516,-510.937c-4.687,-7.813 -12.305,-20.508 -22.851,-38.086c-4.688,-7.813 -11.914,-20.117 -21.68,-36.914l-0,585.937l-116.016,0l0,-799.804l159.375,-0l280.078,471.093c2.344,3.907 19.336,32.617 50.977,86.133l-0,-557.226l113.672,-0l-0,799.804Z" style="fill:#6db9ef;fill-rule:nonzero;"/></g><g><g><g id="Layer1"><path d="M6994.74,0l424.284,880.491l-1310.19,960.58l885.907,-1841.07Z" style="fill:#6db9ef;stroke:#6db9ef;stroke-width:4.17px;"/><path d="M7506.25,1054.31l-604.778,1266.02l-2847.19,2056.7l-215.032,-662.892l3667,-2659.83Z" style="fill:#6db9ef;stroke:#6db9ef;stroke-width:4.17px;"/><path d="M6737.23,2655.91l-606.053,1264.34l-878.548,631.53l-1117.8,-3.708l2602.4,-1892.16Z" style="fill:#6db9ef;stroke:#6db9ef;stroke-width:4.17px;"/><path d="M5465.99,5441.18l-861.79,620.337l-272.583,-832.937l426.718,-309.788l707.655,522.388Z" style="fill:#6db9ef;stroke:#6db9ef;stroke-width:4.17px;"/></g><g id="Layer11" serif:id="Layer1"><path d="M515.675,0l-424.284,880.491l1310.19,960.58l-885.906,-1841.07Z" style="fill:#6db9ef;stroke:#6db9ef;stroke-width:4.17px;"/><path d="M4.167,1054.31l604.777,1266.02l2847.19,2056.7l215.033,-662.892l-3667,-2659.83Z" style="fill:#6db9ef;stroke:#6db9ef;stroke-width:4.17px;"/><path d="M773.184,2655.91l606.054,1264.34l878.547,631.53l1117.8,-3.708l-2602.4,-1892.16Z" style="fill:#6db9ef;stroke:#6db9ef;stroke-width:4.17px;"/><path d="M2044.43,5441.18l861.789,620.337l272.584,-832.937l-426.719,-309.788l-707.654,522.388Z" style="fill:#6db9ef;stroke:#6db9ef;stroke-width:4.17px;"/><path d="M3762.5,5650.64l707.162,517.189l-707.162,503.137l0,-1020.33Zm-2.083,-0l-707.162,517.189l707.162,503.137l-0,-1020.33Z" style="fill:#6db9ef;stroke:#6db9ef;stroke-width:4.17px;"/></g></g><ellipse cx="3764.14" cy="5071.86" rx="411.095" ry="418.285" style="fill:#6db9ef;stroke:#6db9ef;stroke-width:4.17px;"/></g></svg>