<?xml version="1.0" encoding="UTF-8" standalone="no"?>
<!DOCTYPE svg PUBLIC "-//W3C//DTD SVG 1.1//EN" "http://www.w3.org/Graphics/SVG/1.1/DTD/svg11.dtd">
<svg width="100%" height="100%" viewBox="0 0 800 600" version="1.1" xmlns="http://www.w3.org/2000/svg" xmlns:xlink="http://www.w3.org/1999/xlink" xml:space="preserve" xmlns:serif="http://www.serif.com/" style="fill-rule:evenodd;clip-rule:evenodd;stroke-linejoin:round;stroke-miterlimit:2;">
    <g transform="matrix(4.58722,0,0,3.09567,-1789.28,-351.86)">
        <path d="M391.883,181.786L425.997,181.786L425.997,196.002L414.552,196.002L414.552,239.357L403.329,239.357L403.329,196.002L391.883,196.002L391.883,181.786Z" style="fill:rgb(194,0,3);fill-rule:nonzero;stroke:rgb(109,185,239);stroke-width:1.29px;"/>
        <rect x="425.031" y="212.181" width="14.667" height="12.37" style="fill-rule:nonzero;stroke:rgb(109,185,239);stroke-width:1.29px;"/>
        <path d="M444.405,181.786L459.164,181.786L464.856,216.815L470.508,181.786L485.258,181.786L485.258,239.357L476.067,239.357L476.067,195.452L468.985,239.357L460.665,239.357L453.596,195.452L453.596,239.357L444.405,239.357L444.405,181.786Z" style="fill-rule:nonzero;stroke:rgb(109,185,239);stroke-width:1.29px;"/>
        <path d="M492.393,181.786L522.47,181.786L522.47,194.077L503.641,194.077L503.641,203.228L521.107,203.228L521.107,214.97L503.641,214.97L503.641,226.319L523.015,226.319L523.015,239.357L492.393,239.357L492.393,181.786Z" style="fill-rule:nonzero;stroke:rgb(109,185,239);stroke-width:1.29px;"/>
        <path d="M529.208,181.786L545.882,181.786C549.168,181.786 551.823,182.493 553.847,183.906C555.87,185.32 557.542,187.349 558.863,189.993C560.185,192.638 561.143,195.714 561.737,199.222C562.332,202.73 562.629,206.448 562.629,210.375C562.629,216.527 562.187,221.299 561.304,224.689C560.42,228.08 559.194,230.92 557.625,233.211C556.056,235.502 554.371,237.027 552.571,237.786C550.11,238.833 547.88,239.357 545.882,239.357L529.208,239.357L529.208,181.786ZM540.431,194.824L540.431,226.28L543.181,226.28C545.526,226.28 547.195,225.867 548.186,225.043C549.177,224.218 549.953,222.778 550.514,220.723C551.076,218.668 551.357,215.336 551.357,210.728C551.357,204.628 550.729,200.452 549.474,198.201C548.219,195.949 546.138,194.824 543.231,194.824L540.431,194.824Z" style="fill-rule:nonzero;stroke:rgb(109,185,239);stroke-width:1.29px;"/>
    </g>
</svg>
